<svg version="1.1" id="Layer_1" xmlns="http://www.w3.org/2000/svg" xmlns:xlink="http://www.w3.org/1999/xlink" x="0px" y="0px"
	 viewBox="0 0 281.87 252.13" style="enable-background:new 0 0 281.87 252.13;" xml:space="preserve">
<style type="text/css">
	.st0{fill:#FBB040;}
	.st1{fill:#414042;}
</style>
<circle class="st0" cx="144.79" cy="126.06" r="126.15"/>
<g>
	<path class="st1" d="M171.7,83.74h-57.29c-15.83,0-28.71,12.88-28.71,28.71v34.94c0,15.83,12.88,28.71,28.71,28.71h57.29
		c15.83,0,28.71-12.88,28.71-28.71v-34.94C200.41,96.62,187.53,83.74,171.7,83.74z M197.44,147.39c0,14.19-11.55,25.74-25.74,25.74
		h-57.29c-14.19,0-25.74-11.55-25.74-25.74v-34.94c0-14.19,11.55-25.74,25.74-25.74h57.29c14.19,0,25.74,11.55,25.74,25.74V147.39z"
		/>
	<path class="st1" d="M234.53,101.76V46.88c0-0.82-0.66-1.48-1.48-1.48c-0.82,0-1.48,0.66-1.48,1.48v54.8h-9.43
		c-1.97-19.89-18.79-35.48-39.19-35.48h-79.77c-20.4,0-37.22,15.59-39.19,35.48H56.5v-54.8c0-0.82-0.66-1.48-1.48-1.48
		s-1.48,0.66-1.48,1.48v54.8h-0.47c-9.14,0-16.57,7.43-16.57,16.57v24.93c0,9.14,7.43,16.57,16.57,16.57h11.11
		c2.69,19.12,19.15,33.88,39,33.88h79.77c19.85,0,36.31-14.76,39-33.88h11.11c9.14,0,16.57-7.43,16.57-16.57v-24.93
		C249.62,109.62,242.97,102.51,234.53,101.76z M63.87,156.79h-10.8c-7.5,0-13.6-6.1-13.6-13.6v-24.93c0-7.5,6.1-13.6,13.6-13.6
		h10.74c-0.01,0.31-0.02,0.63-0.02,0.94v48.66c0,0.82,0.03,1.63,0.08,2.43V156.79z M182.94,190.67h-79.77
		c-19.3,0-35.13-15.09-36.34-34.09v-53.32c1.21-19,17.04-34.09,36.34-34.09h79.77c19.3,0,35.13,15.09,36.34,34.09v53.32
		C218.08,175.58,202.24,190.67,182.94,190.67z M246.65,143.19c0,7.5-6.1,13.6-13.6,13.6h-10.8v-0.11c0.05-0.81,0.08-1.62,0.08-2.43
		v-48.66c0-0.32-0.02-0.63-0.02-0.94h10.74c7.5,0,13.6,6.1,13.6,13.6V143.19z"/>
	<path class="st1" d="M118.13,107.76c-4.98,0-9.03,4.05-9.03,9.03s4.05,9.03,9.03,9.03s9.03-4.05,9.03-9.03
		S123.11,107.76,118.13,107.76z M118.13,122.84c-3.34,0-6.06-2.72-6.06-6.06c0-3.34,2.72-6.06,6.06-6.06c3.34,0,6.06,2.72,6.06,6.06
		C124.19,120.13,121.47,122.84,118.13,122.84z"/>
	<path class="st1" d="M171.44,107.76c-4.98,0-9.03,4.05-9.03,9.03s4.05,9.03,9.03,9.03c4.98,0,9.03-4.05,9.03-9.03
		S176.42,107.76,171.44,107.76z M171.44,122.84c-3.34,0-6.06-2.72-6.06-6.06c0-3.34,2.72-6.06,6.06-6.06s6.06,2.72,6.06,6.06
		C177.5,120.13,174.78,122.84,171.44,122.84z"/>
	<rect x="125.68" y="146.48" class="st1" width="38.22" height="2.97"/>
</g>
</svg>
